<svg width="160" height="180" viewBox="0 0 160 180" fill="none" xmlns="http://www.w3.org/2000/svg">
  <ellipse cx="80" cy="165" rx="45" ry="8" fill="black" fill-opacity="0.08" />
  <defs>
    <radialGradient id="lemonGradient" cx="0.4" cy="0.3">
      <stop offset="0%" stop-color="#FFF9E6" />
      <stop offset="50%" stop-color="#FFD93D" />
      <stop offset="100%" stop-color="#FFC107" />
    </radialGradient>
  </defs>
  <circle cx="80" cy="95" r="55" fill="url(#lemonGradient)" />
  <ellipse cx="105" cy="55" rx="18" ry="28" fill="#B8E994" transform="rotate(25 105 55)" />
  <ellipse cx="105" cy="55" rx="14" ry="24" fill="#A8D984" transform="rotate(25 105 55)" />
  <circle cx="65" cy="90" r="5" fill="#1A1F2E" />
  <circle cx="95" cy="90" r="5" fill="#1A1F2E" />
  <circle cx="50" cy="100" r="10" fill="#FFB6C1" opacity="0.6" />
  <circle cx="110" cy="100" r="10" fill="#FFB6C1" opacity="0.6" />
  <path d="M 68 105 Q 80 112 92 105" stroke="#1A1F2E" stroke-width="3" stroke-linecap="round" fill="none" />
  <ellipse cx="35" cy="115" rx="8" ry="20" fill="#FFD93D" transform="rotate(-20 35 115)" />
  <circle cx="30" cy="128" r="10" fill="#FFC107" />
  <ellipse cx="125" cy="100" rx="8" ry="22" fill="#FFD93D" transform="rotate(35 125 100)" />
  <circle cx="132" cy="85" r="10" fill="#FFC107" />
  <ellipse cx="65" cy="148" rx="10" ry="18" fill="#FFD93D" />
  <ellipse cx="65" cy="162" rx="12" ry="8" fill="#FFC107" />
  <ellipse cx="95" cy="148" rx="10" ry="18" fill="#FFD93D" />
  <ellipse cx="95" cy="162" rx="12" ry="8" fill="#FFC107" />
</svg>
