<svg xmlns="http://www.w3.org/2000/svg" xml:space="preserve" width="804.70947" height="200" viewBox="0 0 804.70947 200"><path d="M160.037 629.774a73.737 73.737 0 0 1-10.783-2.605c-13.714-4.418-27.897-13.324-37.809-27.046l.257-.187 9.951-5.9c9.193 12.022 19.92 18.535 33.051 22.636 1.67-5.286 2.021-11.209 2.021-17.303 0-28.577-19.856-53.09-45.78-61.108-1.6 5.577-2.265 11.303-2.265 17.383 0 7.349 1.974 16.303 4.268 22.858l-10.12 6.308c-4.17-9.481-5.914-19.475-5.914-29.034 0-6.899.879-13.727 2.63-20.086.812-2.956 1.788-5.977 2.94-8.774 2.7-6.565 6.378-12.647 10.733-18.11 2.105-2.645 4.35-5.189 6.789-7.53 11.522-11.055 26.518-18.575 43.24-20.501v11.85c-13.852 1.904-26.397 8.561-35.914 17.883 11.47 11.241 27.609 17.918 44.937 17.918 17.335 0 33.043-6.94 44.51-18.186-9.506-9.323-21.869-15.736-35.723-17.642v-11.816c16.714 1.931 31.84 9.544 43.364 20.613 2.439 2.34 4.703 4.937 6.809 7.588 4.21 5.3 7.59 11.139 10.258 17.447a76.741 76.741 0 0 1 3.31 9.609 75.38 75.38 0 0 1 2.583 19.605c0 10.405-2.076 20.21-5.9 29.221l-10.1-6.35c2.813-7.183 4.296-14.664 4.296-22.844 0-6.017-.819-11.885-2.39-17.41-26.4 7.735-45.526 32.138-45.526 61.045 0 6.033.321 11.801 1.88 17.34 13.234-3.884 24.987-12.019 33.12-22.735l10.069 6.192c-9.447 12.85-22.89 22.579-38.496 27.367a73.888 73.888 0 0 1-9.945 2.32c-3.94.636-7.99.985-12.12.985-4.17 0-8.246-.349-12.23-1m12.064-54.904c2.68-9.442 8.628-21.029 15.972-28.445-5.022 1.317-10.355 1.934-15.805 1.934a63.56 63.56 0 0 1-16.007-2.028c7.399 7.747 13.098 17.825 15.84 28.539" style="fill:#FCB132;fill-opacity:1;fill-rule:nonzero;stroke:none;stroke-width:2.4886" transform="matrix(1.33333 0 0 -1.33333 -129.22 841.033)"></path><path d="M516.599 554.854c0-3.034-1.254-6.456-3.733-10.298-2.493-3.857-5.798-7.135-9.924-9.84-4.134-2.71-8.479-4.061-13.028-4.061h-55.195v22.136h40.027c3.019 0 5.656.749 7.963 2.244 2.307 1.449 4.074 3.23 5.313 5.416 1.267 2.14 1.892 4.203 1.892 6.268V623h26.685zM557.697 530.654h-26.554V623h26.554zM700.446 550.728c0-2.675-.846-5.86-2.493-9.476-1.665-3.656-4.335-6.834-8.053-9.514-3.703-2.75-8.444-4.136-14.13-4.136-5.92 0-10.273.844-13.13 2.411-2.822 1.635-5.844 4.604-9.061 8.974l-44.88 54.155c-1.42 1.883-2.548 3.06-3.392 3.623-.826.525-1.871.796-3.135.796-.794 0-1.653-.271-2.499-.928-.873-.617-1.301-1.488-1.301-2.625v-63.353h-26.158v73.521c0 1.344.413 3.046 1.247 5.283.839 2.21 2.227 4.505 4.178 6.914 1.946 2.356 4.477 4.377 7.695 6.064 3.193 1.628 7.048 2.454 11.574 2.454 5.682 0 10.179-.96 13.439-2.84 3.228-1.955 5.846-3.981 7.826-6.23l45.178-53.195c1.426-1.966 2.63-3.17 3.606-3.698.988-.56 2.143-.81 3.502-.81 1.543 0 2.493.43 2.86 1.393.373.91.554 2.234.554 3.882V623h26.573zM394.461 583.03h-71.63v9.766c0 7.5 5.05 8.095 8.651 8.095h54.321c3.601 0 8.658-.595 8.658-8.095zm-6.906 40.672h-57.819c-32.4 0-32.703-20.407-32.703-26.412v-66.281l25.687-.062v23.236c0 6.594 4.552 7.197 8.755 7.197h54.334c4.21 0 8.757-.603 8.757-7.197v-23.236l25.684.062v66.281c0 6.005-.303 26.412-32.695 26.412M302.317 489.115h-5.333v18.605h5.333zM331.081 493.158c0-.533-.167-1.175-.5-1.896-.339-.735-.871-1.372-1.62-1.924-.747-.558-1.697-.834-2.84-.834-1.184 0-2.065.164-2.63.493-.568.318-1.172.92-1.824 1.792l-9.016 10.917c-.284.376-.513.622-.68.727-.167.117-.38.164-.63.164-.166 0-.325-.06-.497-.187a.609.609 0 0 1-.257-.525v-12.771h-5.265v14.82c0 .266.092.612.251 1.062.18.45.45.906.844 1.394.388.475.9.883 1.538 1.217.652.328 1.426.492 2.334.492 1.135 0 2.036-.186 2.695-.57.65-.388 1.177-.81 1.57-1.259l9.081-10.708c.284-.393.525-.64.72-.747.208-.12.43-.167.699-.167.313 0 .505.097.577.274.075.19.117.46.117.792v12.004h5.333zM357.613 494.067c0-.866-.298-1.683-.928-2.447a7.312 7.312 0 0 0-2.202-1.829c-.859-.463-1.593-.699-2.203-.699h-18.243v11.47h5.37v-6.903h9.778c1.047 0 1.814.298 2.334.885.505.573.761 1.317.761 2.21v3.783c-.014.552-.144 1.038-.393 1.458-.244.42-.612.75-1.095.993-.493.24-1.08.364-1.794.364h-15.071v4.367h18.047c1.06 0 2.024-.301 2.895-.916.868-.604 1.54-1.331 2.03-2.187.48-.846.714-1.615.714-2.28zM384.395 494.176c0-.634-.249-1.364-.74-2.167a7.549 7.549 0 0 0-1.84-2.063c-.742-.568-1.476-.852-2.203-.852h-13.093c-1.045 0-2.02.304-2.929.921a6.812 6.812 0 0 0-2.125 2.327c-.52.94-.784 1.857-.784 2.735v12.642h5.256v-11.258c0-.518.154-.988.45-1.419a3.64 3.64 0 0 1 1.048-1.013c.408-.241.762-.37 1.08-.37h8.026c.34 0 .694.151 1.08.435.368.296.672.645.93 1.045.247.393.381.75.381 1.026v11.554h5.463zM411.51 491.96c0-.774-.22-1.446-.676-2.016-.458-.568-1.088-.851-1.919-.851h-21.479v4.566h17.226c.306 0 .617.115.956.339.34.219.505.555.505 1.003 0 .244-.067.472-.21.686-.151.215-.36.394-.641.528a2.331 2.331 0 0 1-.928.184h-13.036c-.617 0-1.177.16-1.655.48a3.7 3.7 0 0 0-1.137 1.098c-.256.423-.386.771-.386 1.033v6.047c0 .513.291 1.088.859 1.72.575.63 1.316.943 2.222.943h19.29v-4.412h-15.923c-.333 0-.594-.155-.791-.426a1.438 1.438 0 0 1-.296-.871c0-.276.132-.567.408-.88.269-.312.652-.466 1.157-.466h13.063c1.154 0 2.013-.304 2.563-.899.56-.594.829-1.383.829-2.356zM444.797 503.221h-9.614v-14.127h-5.255v18.624h14.869zm-16.288-14.105h-5.266v14.14h-9.61v4.48h14.876zM473.575 489.093h-5.493c-.415 2.292-.816 4.052-1.184 5.259-.381 1.204-.901 1.804-1.57 1.804H453.21v-7.063h-5.341v11.343h16.557c.455 0 .863.14 1.224.413.358.282.548.62.548 1.055 0 .177-.063.381-.19.613a1.572 1.572 0 0 1-.545.59c-.241.156-.547.246-.935.246h-16.66v4.365h20.325c1.217 0 2.106-.346 2.65-1.04.548-.68.812-1.489.812-2.41v-3.767c0-.781-.132-1.351-.408-1.717-.269-.376-.834-.784-1.663-1.247.548-.291.929-.528 1.173-.687.214-.167.502-.52.843-1.053.324-.532.657-1.328.988-2.381.329-1.055.66-2.504.986-4.323M480.112 489.115h-5.325v18.605h5.325zM532.335 489.093H516.8c-.836 0-1.66.299-2.429.891-.791.597-1.448 1.284-1.949 2.088-.505.789-.761 1.421-.761 1.894v13.752h5.139v-11.186c0-.63.181-1.163.52-1.635a3.364 3.364 0 0 1 1.192-1.06c.463-.234.859-.361 1.162-.361h12.662zM562.391 489.093h-14.334c-1.483 0-2.722.306-3.728.921-.975.625-1.702 1.351-2.14 2.205-.455.851-.684 1.652-.684 2.409v7.894c0 .846.283 1.677.863 2.48a7.594 7.594 0 0 0 2.086 1.967c.803.497 1.475.749 2.003.749h15.845v-4.365h-12.396c-.465 0-.928-.142-1.386-.43a3.722 3.722 0 0 1-1.135-1.066c-.286-.423-.443-.821-.443-1.192v-4.367c0-.41.11-.824.346-1.22.222-.4.54-.726.96-.993.431-.261.89-.4 1.407-.4h12.736zM585.413 496.498v3.838c0 .801-.256 1.48-.803 2.043-.538.567-1.411.843-2.581.843h-8.23c-.311 0-.714-.124-1.162-.365a3.824 3.824 0 0 1-1.247-.966c-.346-.393-.52-.816-.52-1.264v-3.646c0-.871.251-1.598.714-2.207.443-.598 1.115-.889 2.014-.889h9.15c.754 0 1.391.202 1.891.602.518.396.774 1.076.774 2.011m5.346-1.747c0-1.023-.301-1.973-.864-2.84-.59-.863-1.279-1.55-2.105-2.055-.831-.507-1.55-.764-2.17-.764h-14.265c-1.184 0-2.222.306-3.123.923-.9.623-1.608 1.38-2.1 2.305-.478.916-.732 1.78-.732 2.625v6.996c0 .754.172 1.488.505 2.182.331.7.76 1.317 1.322 1.857a6.818 6.818 0 0 0 1.767 1.266c.642.319 1.259.473 1.836.473h14.063c.62 0 1.394-.209 2.322-.624.928-.423 1.76-1.098 2.466-2.033.72-.934 1.078-2.13 1.078-3.604zM596.476 489.092h-4.536v4.565h4.536zM603.107 489.093l-1.493-2.717h-2.133c0 .08.15.453.433 1.117.301.66.535 1.2.739 1.623h-1.968v4.633h4.422zM633.52 489.093h-15.542c-.824 0-1.633.299-2.419.891a8.033 8.033 0 0 0-1.959 2.088c-.507.789-.761 1.421-.761 1.894v13.752h5.139v-11.186c0-.63.174-1.163.52-1.635.331-.468.727-.824 1.197-1.06.47-.234.851-.361 1.16-.361h12.664zM667.747 503.221h-9.628v-14.127h-5.251v18.624h14.879zm-16.318-14.105h-5.233v14.14h-9.636v4.48h14.87zM694.526 494.067c0-.866-.298-1.683-.925-2.447a7.388 7.388 0 0 0-2.23-1.829c-.844-.463-1.573-.699-2.188-.699h-18.236v11.47h5.373v-6.903h9.75c1.068 0 1.824.298 2.347.885.52.573.766 1.317.766 2.21v3.783a2.77 2.77 0 0 1-.403 1.458c-.239.42-.6.75-1.085.993-.485.24-1.087.364-1.794.364h-15.076v4.367h18.052a4.91 4.91 0 0 0 2.89-.916c.86-.604 1.542-1.331 2.038-2.187.475-.846.721-1.615.721-2.28zM700.25 489.092h-4.514v4.565h4.515zM503.411 499.615h-15.036v1.97c0 1.524 1.025 1.643 1.755 1.643h11.529c.727 0 1.752-.119 1.752-1.642zm-1.398 8.232h-12.237c-6.567 0-6.624-4.126-6.624-5.348v-13.433l5.203-.01v4.703c0 1.344.92 1.456 1.767 1.456h11.545c.858 0 1.767-.112 1.767-1.456v-4.703l5.206.01v13.433c0 1.222-.063 5.348-6.627 5.348" style="fill:#1A1A1A;fill-opacity:1;fill-rule:nonzero;stroke:none;stroke-width:2.4886" transform="matrix(1.33333 0 0 -1.33333 -129.22 841.033)"></path></svg>