<svg xmlns="http://www.w3.org/2000/svg" viewBox="0 0 200 200" width="200" height="200">
  <g transform="matrix(1.33333 0 0 -1.33333 -129.22 841.033)">
    <path d="M160.037 629.774a73.737 73.737 0 0 1-10.783-2.605c-13.714-4.418-27.897-13.324-37.809-27.046l.257-.187 9.951-5.9c9.193 12.022 19.92 18.535 33.051 22.636 1.67-5.286 2.021-11.209 2.021-17.303 0-28.577-19.856-53.09-45.78-61.108-1.6 5.577-2.265 11.303-2.265 17.383 0 7.349 1.974 16.303 4.268 22.858l-10.12 6.308c-4.17-9.481-5.914-19.475-5.914-29.034 0-6.899.879-13.727 2.63-20.086.812-2.956 1.788-5.977 2.94-8.774 2.7-6.565 6.378-12.647 10.733-18.11 2.105-2.645 4.35-5.189 6.789-7.53 11.522-11.055 26.518-18.575 43.24-20.501v11.85c-13.852 1.904-26.397 8.561-35.914 17.883 11.47 11.241 27.609 17.918 44.937 17.918 17.335 0 33.043-6.94 44.51-18.186-9.506-9.323-21.869-15.736-35.723-17.642v-11.816c16.714 1.931 31.84 9.544 43.364 20.613 2.439 2.34 4.703 4.937 6.809 7.588 4.21 5.3 7.59 11.139 10.258 17.447a76.741 76.741 0 0 1 3.31 9.609 75.38 75.38 0 0 1 2.583 19.605c0 10.405-2.076 20.21-5.9 29.221l-10.1-6.35c2.813-7.183 4.296-14.664 4.296-22.844 0-6.017-.819-11.885-2.39-17.41-26.4 7.735-45.526 32.138-45.526 61.045 0 6.033.321 11.801 1.88 17.34 13.234-3.884 24.987-12.019 33.12-22.735l10.069 6.192c-9.447 12.85-22.89 22.579-38.496 27.367a73.888 73.888 0 0 1-9.945 2.32c-3.94.636-7.99.985-12.12.985-4.17 0-8.246-.349-12.23-1m12.064-54.904c2.68-9.442 8.628-21.029 15.972-28.445-5.022 1.317-10.355 1.934-15.805 1.934a63.56 63.56 0 0 1-16.007-2.028c7.399 7.747 13.098 17.825 15.84 28.539" fill="#FCB132"></path>
  </g>
</svg>